<svg xmlns="http://www.w3.org/2000/svg" version="1.1" xmlns:xlink="http://www.w3.org/1999/xlink" xmlns:svgjs="http://svgjs.dev/svgjs" width="1000" height="157" viewBox="0 0 1000 157"><g transform="matrix(1,0,0,1,0.2495143306912837,0.6563165785868961)"><svg viewBox="0 0 267 42" data-background-color="#ffffff" preserveAspectRatio="xMidYMid meet" height="157" width="1000" xmlns="http://www.w3.org/2000/svg" xmlns:xlink="http://www.w3.org/1999/xlink"><g id="tight-bounds" transform="matrix(1,0,0,1,-0.06662024861265081,-0.17557486432710334)"><svg viewBox="0 0 267.1332405749073 42.35115" height="42.35115" width="267.1332405749073"><g><svg viewBox="0 0 267.1332405749073 42.35115" height="42.35115" width="267.1332405749073"><g><svg viewBox="0 0 267.1332405749073 42.35115" height="42.35115" width="267.1332405749073"><g id="textblocktransform"><svg viewBox="0 0 267.1332405749073 42.35115" height="42.35115" width="267.1332405749073" id="textblock"><g><svg viewBox="0 0 267.1332405749073 42.35115" height="42.35115" width="267.1332405749073"><g><svg><g></g><g></g></svg></g><g><svg><g></g><g><svg></svg></g></svg></g><g id="text-0"><svg viewBox="0 0 267.1332405749073 42.35115" height="42.35115" width="267.1332405749073"><g><svg xmlns="http://www.w3.org/2000/svg" xmlns:xlink="http://www.w3.org/1999/xlink" version="1.1" x="0" y="0" viewBox="0.35833266377449036 0.3587188720703125 89.28327178955078 89.28766632080078" enable-background="new 0 0 90 90" xml:space="preserve" height="42.35115" width="42.349065574907286" class="icon-s-0" data-fill-palette-color="accent" id="s-0"><polygon points="57.928,58.169 57.875,76.027 45.397,63.548 45.397,45.639 " fill="#000000" data-fill-palette-color="accent"></polygon><polygon points="76.027,57.875 58.475,57.927 45.826,45.279 63.432,45.279 " fill="#000000" data-fill-palette-color="accent"></polygon><polygon points="76.027,32.125 63.432,44.721 45.707,44.721 58.355,32.073 " fill="#000000" data-fill-palette-color="accent"></polygon><polygon points="44.838,45.59 44.838,63.314 32.125,76.027 32.074,58.355 " fill="#000000" data-fill-palette-color="accent"></polygon><polygon points="57.928,31.712 45.397,44.243 45.397,26.452 57.875,13.974 " fill="#000000" data-fill-palette-color="accent"></polygon><polygon points="44.838,26.687 44.838,44.291 32.074,31.526 32.125,13.974 " fill="#000000" data-fill-palette-color="accent"></polygon><polygon points="44.479,44.721 26.569,44.721 13.974,32.125 31.832,32.073 " fill="#000000" data-fill-palette-color="accent"></polygon><polygon points="44.36,45.279 31.712,57.927 13.974,57.875 26.569,45.279 " fill="#000000" data-fill-palette-color="accent"></polygon><rect x="58.48" y="58.48" width="18.049" height="18.049" fill="#000000" data-fill-palette-color="accent"></rect><polygon points="76.527,13.474 76.527,31.516 58.914,31.516 58.912,31.518 58.484,31.516 58.484,13.474 " fill="#000000" data-fill-palette-color="accent"></polygon><polygon points="31.518,30.971 31.516,31.516 13.474,31.516 13.474,13.474 31.516,13.474 31.516,30.968 " fill="#000000" data-fill-palette-color="accent"></polygon><rect x="13.471" y="58.48" width="18.05" height="18.049" fill="#000000" data-fill-palette-color="accent"></rect><rect x="67.864" y="35.981" transform="matrix(0.7071 -0.7071 0.7071 0.7071 -9.3022 67.5465)" width="18.042" height="18.042" fill="#000000" data-fill-palette-color="accent"></rect><rect x="35.979" y="4.094" transform="matrix(0.7071 -0.7071 0.7071 0.7071 3.9068 35.6621)" width="18.042" height="18.042" fill="#000000" data-fill-palette-color="accent"></rect><rect x="4.095" y="35.98" transform="matrix(0.7071 -0.7071 0.7071 0.7071 -27.9787 22.4536)" width="18.041" height="18.041" fill="#000000" data-fill-palette-color="accent"></rect><rect x="35.98" y="67.865" transform="matrix(0.7071 -0.7071 0.7071 0.7071 -41.1877 54.3437)" width="18.04" height="18.041" fill="#000000" data-fill-palette-color="accent"></rect></svg></g><g transform="matrix(1,0,0,1,55.68086557490729,0)"><svg width="211.45237500000002" viewBox="2.4000000953674316 -34.900001525878906 174.24000549316406 34.900001525878906" height="42.35115" data-palette-color="#dedede"><path d="M21.9 0L21.9-16.15 22.2-26.25 21.75-26.25 15-8.3 8.25-26.25 7.8-26.25 8.1-16.15 8.1 0 2.4 0 2.4-34.9 10.2-34.9 15.05-22.05 15.4-22.05 20.3-34.9 27.6-34.9 27.6 0 21.9 0ZM59.4 0L52.45 0 50-8.85 39.65-8.85 37.25 0 30.65 0 40.45-34.9 49.55-34.9 59.4 0ZM48.9-14.2L45.05-28.45 44.65-28.45 40.8-14.2 48.9-14.2ZM78.59 0L69.45-25.05 68.95-25.05 68.95 0 63.35 0 63.35-34.9 71.4-34.9 80.55-9.85 81.05-9.85 81.05-34.9 86.65-34.9 86.65 0 78.59 0ZM116.09 0L93.89 0 93.89-4.9 101.74-4.9 101.74-30 93.89-30 93.89-34.9 116.09-34.9 116.09-30 108.24-30 108.24-4.9 116.09-4.9 116.09 0ZM148.74-29.5L138.24-29.5 138.24 0 131.74 0 131.74-29.5 121.24-29.5 121.24-34.9 148.74-34.9 148.74-29.5ZM170.09 0L170.09-15 159.89-15 159.89 0 153.34 0 153.34-34.9 159.89-34.9 159.89-20.4 170.09-20.4 170.09-34.9 176.64-34.9 176.64 0 170.09 0Z" opacity="1" transform="matrix(1,0,0,1,0,0)" fill="#000000" class="wordmark-text-0" data-fill-palette-color="primary"></path></svg></g></svg></g></svg></g></svg></g></svg></g></svg></g><defs></defs></svg><rect width="267.1332405749073" height="42.35115" fill="none" stroke="none" visibility="hidden"></rect></g></svg></g></svg>